<svg id="그룹_3" data-name="그룹 3" xmlns="http://www.w3.org/2000/svg" width="30" height="30" viewBox="0 0 30 30">
  <defs>
    <style>
      .cls-1 {
        fill-opacity: 0.5;
      }

      .cls-2 {
        fill: #fff;
        fill-rule: evenodd;
      }
    </style>
  </defs>
  <circle id="타원_1" data-name="타원 1" class="cls-1" cx="15" cy="15" r="15"/>
  <path id="ico_user" class="cls-2" d="M4182.23,46.736a4.445,4.445,0,1,0-4.47,0,7.421,7.421,0,0,0-5.27,7.058,0.565,0.565,0,0,0,1.13,0,6.376,6.376,0,0,1,12.75,0,0.56,0.56,0,0,0,1.12,0A7.424,7.424,0,0,0,4182.23,46.736Zm-5.56-3.779a3.32,3.32,0,1,1,3.32,3.271A3.3,3.3,0,0,1,4176.67,42.956Z" transform="translate(-4165 -32)"/>
</svg>
