<?xml version="1.0" encoding="utf-8"?>
<!-- Generator: Adobe Illustrator 26.3.1, SVG Export Plug-In . SVG Version: 6.00 Build 0)  -->
<svg version="1.1" id="_이어_2" xmlns="http://www.w3.org/2000/svg" xmlns:xlink="http://www.w3.org/1999/xlink" x="0px" y="0px"
	 viewBox="0 0 16 20" style="enable-background:new 0 0 16 20;" xml:space="preserve">
<style type="text/css">
	.st0{fill:#ADB5C3;}
</style>
<g id="_이어_1-2">
	<path class="st0" d="M7.3,18.6H3.6c-1.2,0-2.3-1-2.3-2.4V3.8c0-1.3,1-2.3,2.3-2.3h3.6c0.4,0,0.7-0.3,0.7-0.7S7.6,0,7.3,0H3.6
		C1.6,0,0,1.7,0,3.8v12.5C0,18.3,1.6,20,3.6,20h3.6c0.4,0,0.7-0.3,0.7-0.7S7.6,18.6,7.3,18.6L7.3,18.6z"/>
	<path class="st0" d="M5.7,10.5C5.7,10.5,5.7,10.5,5.7,10.5l4.1,4.2c0.3,0.3,0.7,0.3,1,0s0.3-0.7,0-1l-2.9-3h7.5
		c0.4,0,0.7-0.3,0.7-0.7s-0.3-0.7-0.7-0.7H7.8l2.9-3c0.3-0.3,0.3-0.7,0-1c-0.1-0.1-0.3-0.2-0.5-0.2S9.9,5.1,9.8,5.3L5.7,9.5
		c0,0,0,0,0,0C5.6,9.7,5.5,9.8,5.5,10C5.5,10.2,5.6,10.4,5.7,10.5L5.7,10.5z"/>
</g>
</svg>
