<?xml version="1.0" encoding="utf-8"?>
<!-- Generator: Adobe Illustrator 26.4.0, SVG Export Plug-In . SVG Version: 6.00 Build 0)  -->
<svg version="1.1" id="레이어_1" xmlns="http://www.w3.org/2000/svg" xmlns:xlink="http://www.w3.org/1999/xlink" x="0px"
	 y="0px" viewBox="0 0 30 30" style="enable-background:new 0 0 30 30;" xml:space="preserve">
<style type="text/css">
	.st0{fill:#004787;}
	.st1{fill:#FFFFFF;}
</style>
<g>
	<g>
		<path class="st0" d="M15,0C6.72,0,0,6.72,0,15c0,8.28,6.72,15,15,15s15-6.72,15-15C30,6.72,23.28,0,15,0z M21.5,23
			c0-3.58-2.92-6.5-6.5-6.5S8.5,19.42,8.5,23h-1c0-3.59,2.54-6.6,5.92-7.33C12,15.06,11,13.65,11,12c0-2.21,1.79-4,4-4s4,1.79,4,4
			c0,1.65-1,3.06-2.42,3.67c3.38,0.73,5.92,3.74,5.92,7.33H21.5z"/>
	</g>
	<circle class="st0" cx="15" cy="12" r="3"/>
	<path class="st1" d="M16.58,15.67C18,15.06,19,13.65,19,12c0-2.21-1.79-4-4-4s-4,1.79-4,4c0,1.65,1,3.06,2.42,3.67
		C10.04,16.4,7.5,19.41,7.5,23h1c0-3.58,2.92-6.5,6.5-6.5s6.5,2.92,6.5,6.5h1C22.5,19.41,19.96,16.4,16.58,15.67z M12,12
		c0-1.65,1.35-3,3-3s3,1.35,3,3c0,1.65-1.35,3-3,3S12,13.65,12,12z"/>
</g>
</svg>
