<?xml version="1.0" encoding="UTF-8"?>
<svg id="Layer_2" data-name="Layer 2" xmlns="http://www.w3.org/2000/svg" viewBox="0 0 15.03 18">
  <defs>
    <style>
      .cls-1 {
        fill: #fff;
      }
    </style>
  </defs>
  <g id="Layer_1-2" data-name="Layer 1">
    <g>
      <path class="cls-1" d="m7.47,17h-3.94c-1.4,0-2.53-1.14-2.53-2.53V3.53c0-1.4,1.14-2.53,2.53-2.53h3.94c.28,0,.5-.22.5-.5s-.22-.5-.5-.5h-3.94C1.58,0,0,1.58,0,3.53v10.94c0,1.95,1.58,3.53,3.53,3.53h3.94c.28,0,.5-.22.5-.5s-.22-.5-.5-.5Z"/>
      <path class="cls-1" d="m14.99,9.19c.05-.12.05-.26,0-.38-.03-.06-.06-.12-.11-.16l-4-4c-.2-.2-.51-.2-.71,0s-.2.51,0,.71l3.15,3.15h-7.79c-.28,0-.5.22-.5.5s.22.5.5.5h7.79l-3.15,3.15c-.2.2-.2.51,0,.71.1.1.23.15.35.15s.26-.05.35-.15l4-4s.08-.1.11-.16Z"/>
    </g>
  </g>
</svg>